<svg xmlns="http://www.w3.org/2000/svg" width="51.78" height="50.558" viewBox="0 0 51.78 50.558"><defs><style>.a{fill:#fff;}</style></defs><g transform="translate(-54.935 -527.287)"><path class="a" d="M64.331,578.724c0,1.172,0,2.271,0,3.37a1.216,1.216,0,0,1-.887,1.286,1.109,1.109,0,0,1-1.462-.982c-.059-1.985-.02-3.973-.02-6.021.267-.012.5-.031.729-.032,1.365,0,2.73-.036,4.093.009a3.222,3.222,0,0,0,2.692-1.3,6.872,6.872,0,0,0,1.38-3.711q.425-3.181.924-6.352a.887.887,0,0,1,.417-.554c1.108-.588,2.226-1.156,3.36-1.691.546-.258.623-.547.319-1.06-1.092-1.841-2.114-3.725-3.246-5.541a9.725,9.725,0,0,1-1.156-3.385,28.6,28.6,0,0,0-1.5-5.342c-1.659-4-4.838-6.211-9.019-7.008-1.353-.257-2.746-.3-4.122-.436-.28-.027-.565-.008-.842-.05a1.167,1.167,0,0,1-1.055-1.195,1.153,1.153,0,0,1,1.109-1.151c3.974.008,7.81.61,11.2,2.874a14.594,14.594,0,0,1,5.921,8.858c.341,1.292.519,2.625.789,3.936a3.31,3.31,0,0,0,.323.964c1.19,2.085,2.4,4.156,3.605,6.235,1.083,1.872.6,3.476-1.35,4.454a14.87,14.87,0,0,1-1.745.85c-.709.247-.878.737-.965,1.4-.266,2.036-.539,4.072-.9,6.091a7.222,7.222,0,0,1-2.86,4.5,4.622,4.622,0,0,1-2.957.987C66.215,578.713,65.328,578.724,64.331,578.724Z" transform="translate(0 -5.586)"/><path class="a" d="M133.274,576.333c0,.974,0,1.878,0,2.782,0,1.039.012,2.079-.008,3.118a1.164,1.164,0,1,1-2.328,0c-.017-1.144,0-2.288,0-3.523h-1.967a6.116,6.116,0,0,1-6.356-4.5,25.357,25.357,0,0,1-.76-3.933c-.208-1.258-.346-2.527-.56-3.783a.939.939,0,0,0-.466-.539c-.758-.414-1.542-.783-2.314-1.171a2.811,2.811,0,0,1-1.253-4.193c.87-1.52,1.7-3.065,2.648-4.536a11.7,11.7,0,0,0,1.7-4.684A16.9,16.9,0,0,1,125.162,543a14.711,14.711,0,0,1,9.377-5.054,42.769,42.769,0,0,1,4.326-.387,1.186,1.186,0,0,1,1.421,1.155c.016.742-.46,1.21-1.363,1.222a21.7,21.7,0,0,0-6.4.9,11.877,11.877,0,0,0-8.068,8.676c-.428,1.51-.62,3.087-.936,4.63a3.048,3.048,0,0,1-.314.9c-1.259,2.194-2.536,4.378-3.805,6.566-.419.723-.4.765.368,1.152,1.062.533,2.138,1.039,3.176,1.613a1.214,1.214,0,0,1,.542.766c.384,2.455.695,4.922,1.084,7.376a4.749,4.749,0,0,0,1.922,3.2,3.449,3.449,0,0,0,1.728.586c1.424.083,2.857.027,4.286.027Z" transform="translate(-33.571 -5.575)"/><path class="a" d="M55.086,557.894a2.37,2.37,0,0,1,2.362-2.339,2.364,2.364,0,1,1-.045,4.727A2.381,2.381,0,0,1,55.086,557.894Z" transform="translate(-0.082 -15.345)"/><path class="a" d="M144.782,575.7a2.344,2.344,0,1,1,2.39-2.312A2.366,2.366,0,0,1,144.782,575.7Z" transform="translate(-47.496 -23.738)"/><path class="a" d="M72.827,571.017a2.344,2.344,0,1,1-2.354,2.342A2.348,2.348,0,0,1,72.827,571.017Z" transform="translate(-8.435 -23.739)"/><path class="a" d="M126.6,534.774a2.35,2.35,0,0,1-2.33,2.367,2.364,2.364,0,1,1,2.33-2.367Z" transform="translate(-36.348 -2.783)"/><path class="a" d="M147.172,557.925a2.372,2.372,0,1,1-2.346-2.371A2.412,2.412,0,0,1,147.172,557.925Z" transform="translate(-47.496 -15.345)"/><path class="a" d="M95.791,534.81a2.38,2.38,0,0,1-2.376,2.33,2.364,2.364,0,1,1,.066-4.727A2.385,2.385,0,0,1,95.791,534.81Z" transform="translate(-19.622 -2.783)"/><path class="a" d="M72.852,560.28a2.364,2.364,0,1,1,2.363-2.358A2.41,2.41,0,0,1,72.852,560.28Z" transform="translate(-8.435 -15.344)"/><path class="a" d="M106.516,529.654A2.342,2.342,0,1,1,108.85,532,2.335,2.335,0,0,1,106.516,529.654Z" transform="translate(-28.001)"/><path class="a" d="M57.436,575.7a2.344,2.344,0,1,1,.043-4.688,2.344,2.344,0,0,1-.043,4.688Z" transform="translate(-0.082 -23.738)"/></g></svg>