<svg xmlns="http://www.w3.org/2000/svg" width="49.539" height="49.549" viewBox="0 0 49.539 49.549"><defs><style>.a{fill:#fff;}</style></defs><g transform="translate(-49.803 -395.598)"><path class="a" d="M49.8,446.977a16.058,16.058,0,0,1,.626-1.9,6.821,6.821,0,0,1,2.884-3.1,14.731,14.731,0,0,1-1.146-1.817,4.951,4.951,0,0,1,1.545-5.962c.1-.076.181-.222.291-.247.761-.174.751-.716.747-1.342q-.035-5.007,0-10.013a4.112,4.112,0,0,1,1.023-2.838,4.2,4.2,0,0,1,2.994-1.413c.561-.031,1.127-.005,1.769-.005-4.213-1.195-5.11-4.655-4.789-6.716a5.95,5.95,0,0,1,6.626-5.177,6.008,6.008,0,0,1,.6,11.839l.013.144c1.141-.1,2.295-.129,3.418-.325,1.8-.314,3.575-.771,5.373-1.1.519-.095.7-.466.95-.78,1.286-1.628,2.508-3.306,3.821-4.91a2.875,2.875,0,0,1,4.919,1.292,3.556,3.556,0,0,1-1.027,3.109q-1.389,1.779-2.764,3.57c-.6.777-1.168,1.579-1.8,2.332a5.753,5.753,0,0,1-2.678,1.454c-1.094.4-2.2.775-3.288,1.188a.545.545,0,0,0-.261.417c-.015,2.741-.01,5.482-.014,8.223,0,.252.054.361.344.456a4.812,4.812,0,0,1,3.529,3.847,4.982,4.982,0,0,1-1.545,4.709,6.87,6.87,0,0,1,2.6,2.524,6.818,6.818,0,0,1,2.634-2.519,5,5,0,0,1-1.649-4.3,4.749,4.749,0,0,1,1.852-3.372,5.008,5.008,0,0,1,6.863.611,5.078,5.078,0,0,1-.406,7.067,6.9,6.9,0,0,1,2.505,2.331l2.6-2.43a5.012,5.012,0,0,1,6.692-7.462,5.083,5.083,0,0,1,.117,7.571,7.4,7.4,0,0,1,2.341,2.121,6.435,6.435,0,0,1,1.131,2.777c.007.052.06.1.092.146v3.483a1.3,1.3,0,0,1-1.2.591q-23.571-.022-47.142,0a1.3,1.3,0,0,1-1.2-.591Zm15.49-5.052a5.2,5.2,0,0,1-1.567-4.685,4.908,4.908,0,0,1,3.33-3.8c.4-.115.567-.253.563-.7-.021-2.967,0-5.934-.019-8.9a1.206,1.206,0,0,1,.948-1.336c1.575-.555,3.155-1.093,4.715-1.688a3.01,3.01,0,0,0,1.165-.775c.665-.761,1.242-1.6,1.859-2.4.985-1.28,1.976-2.556,2.96-3.837a.885.885,0,0,0-.04-1.133.8.8,0,0,0-1.163.112c-.2.263-.4.531-.6.795q-1.657,2.142-3.319,4.281a2.28,2.28,0,0,1-1.294,1.059c-1.484.3-2.962.626-4.448.91a23.329,23.329,0,0,1-3.224.516c-1.754.086-3.514.017-5.272.028a9.5,9.5,0,0,0-1.284.1,2.018,2.018,0,0,0-1.728,1.695,7.93,7.93,0,0,0-.1,1.236c-.008,3.064,0,6.128,0,9.191v.518a5.065,5.065,0,0,1,3.42,8.722l2.593,2.422A6.789,6.789,0,0,1,65.293,441.925Zm.283-29.478a3.9,3.9,0,1,0-3.885,3.861A3.918,3.918,0,0,0,65.576,412.447Zm7.906,36.547a4.89,4.89,0,0,0-2.5-5.194,4.594,4.594,0,0,0-5.455.5,4.966,4.966,0,0,0-1.759,4.693Zm11.911,0a4.981,4.981,0,0,0-2.563-5.215,4.6,4.6,0,0,0-5.344.46,4.86,4.86,0,0,0-1.809,4.755Zm-33.543-.015h9.72a4.83,4.83,0,0,0-2.4-5.135,4.572,4.572,0,0,0-5.118.149A5.055,5.055,0,0,0,51.85,448.978Zm45.447.015c.159-2.345-.6-4.212-2.7-5.286a4.594,4.594,0,0,0-5.216.533,4.787,4.787,0,0,0-1.8,4.753Zm-28.69-13.725a2.865,2.865,0,0,0-2.895,2.906,2.916,2.916,0,0,0,5.832-.006A2.873,2.873,0,0,0,68.608,435.268Zm11.939,0a2.872,2.872,0,0,0-2.947,2.89,2.916,2.916,0,0,0,5.832.026A2.865,2.865,0,0,0,80.547,435.268Zm-26.682,2.9a2.855,2.855,0,0,0,2.876,2.9,2.908,2.908,0,0,0,.037-5.816A2.928,2.928,0,0,0,53.865,438.171Zm41.415.015a2.893,2.893,0,1,0-5.785-.03,2.894,2.894,0,0,0,2.895,2.913A2.856,2.856,0,0,0,95.28,438.186Z" transform="translate(0 -5.903)"/><path class="a" d="M110.025,424.722a1.509,1.509,0,0,1-1.4.682q-12.964-.014-25.928-.007a2.34,2.34,0,0,1-.434-.01,1.049,1.049,0,0,1-.968-1.193,1.08,1.08,0,0,1,1.092-.919c.128-.01.258,0,.387,0h25.188V422.4H82.542c-.815,0-1.262-.393-1.252-1.1a.879.879,0,0,1,.975-.929q3.458,0,6.917,0h3.895V416.4h.495c2.693,0,5.386.006,8.078-.008.337,0,.535.08.645.414a2.139,2.139,0,0,0,.335.571,1.53,1.53,0,0,1-.02,2.041,7.465,7.465,0,0,0-.522.926h3.947V397.665H71.417c0,.322.015.655,0,.986a.9.9,0,0,1-.944.912c-.672.01-1.046-.268-1.072-.876-.032-.74-.015-1.483,0-2.225a1.1,1.1,0,0,1,.575-.864h37.445a1.508,1.508,0,0,1,.686,1.4q-.025,11.391-.01,22.781v.57c.73.068,1.508-.206,1.937.595Z" transform="translate(-10.683)"/></g></svg>